<?xml version="1.0" encoding="iso-8859-1"?>
<!-- Generator: Adobe Illustrator 19.0.0, SVG Export Plug-In . SVG Version: 6.00 Build 0)  -->
<svg version="1.1" id="Capa_1" xmlns="http://www.w3.org/2000/svg" xmlns:xlink="http://www.w3.org/1999/xlink" x="0px" y="0px"
	 viewBox="0 0 464 464" style="enable-background:new 0 0 464 464;" xml:space="preserve">
<path style="fill:#F0F0F0;" d="M464,220H0v-64h432L464,220z"/>
<g>
	<path style="fill:#DBDBDB;" d="M448,220H0v-64h417.104L448,220z"/>
	<path style="fill:#DBDBDB;" d="M176,156h56v64h-56V156z"/>
	<path style="fill:#DBDBDB;" d="M56,156h56v64H56V156z"/>
	<path style="fill:#DBDBDB;" d="M232,156h56v64h-56V156z"/>
	<path style="fill:#DBDBDB;" d="M352,156h48v64h-48V156z"/>
</g>
<g>
	<path style="fill:#B9B9B9;" d="M224,148h16v80h-16V148z"/>
	<path style="fill:#B9B9B9;" d="M392,148h16v80h-16V148z"/>
	<path style="fill:#B9B9B9;" d="M56,148h16v80H56V148z"/>
</g>
<path style="fill:#428DC5;" d="M0,220h464l0,0v104c0,8.837-7.163,16-16,16H16c-8.837,0-16-7.163-16-16V220L0,220z"/>
<g>
	<path style="fill:#277BAA;" d="M112,188h64v120h-64V188z"/>
	<path style="fill:#277BAA;" d="M112,180h32v136h-32V180z"/>
</g>
<path style="fill:#4799CF;" d="M144,180h32v136h-32V180z"/>
<path style="fill:#277BAA;" d="M288,180h32v136h-32V180z"/>
<path style="fill:#4799CF;" d="M320,180h32v136h-32V180z"/>
<g>
	<path style="fill:#277BAA;" d="M24,244h16v16H24V244z"/>
	<path style="fill:#277BAA;" d="M56,244h16v16H56V244z"/>
	<path style="fill:#277BAA;" d="M392,244h16v16h-16V244z"/>
	<path style="fill:#277BAA;" d="M424,244h16v16h-16V244z"/>
	<path style="fill:#277BAA;" d="M208,244h16v16h-16V244z"/>
	<path style="fill:#277BAA;" d="M240,244h16v16h-16V244z"/>
	<path style="fill:#277BAA;" d="M0,308h464l0,0v16c0,8.837-7.163,16-16,16H16c-8.837,0-16-7.163-16-16V308L0,308z"/>
</g>
<g>
	<path style="fill:#B9B9B9;" d="M288,148h64v40h-64V148z"/>
	<path style="fill:#B9B9B9;" d="M112,148h64v40h-64V148z"/>
</g>
<path style="fill:#277BAA;" d="M432,156H0c0.346-18.011,15.221-32.335,33.232-32h365.536C416.779,123.665,431.654,137.989,432,156z"
	/>
<path style="fill:#B9B9B9;" d="M288,92h32v32h-32V92z"/>
<g>
	<path style="fill:#DBDBDB;" d="M304,92h16v32h-16V92z"/>
	<circle style="fill:#DBDBDB;" cx="88" cy="340" r="24"/>
</g>
<path style="fill:#62666A;" d="M88,372c-17.673,0-32-14.327-32-32s14.327-32,32-32s32,14.327,32,32S105.673,372,88,372z M88,324
	c-8.837,0-16,7.163-16,16s7.163,16,16,16s16-7.163,16-16S96.837,324,88,324z"/>
<circle style="fill:#DBDBDB;" cx="376" cy="340" r="24"/>
<path style="fill:#62666A;" d="M376,372c-17.673,0-32-14.327-32-32s14.327-32,32-32s32,14.327,32,32S393.673,372,376,372z M376,324
	c-8.837,0-16,7.163-16,16s7.163,16,16,16s16-7.163,16-16S384.837,324,376,324z"/>
<g>
</g>
<g>
</g>
<g>
</g>
<g>
</g>
<g>
</g>
<g>
</g>
<g>
</g>
<g>
</g>
<g>
</g>
<g>
</g>
<g>
</g>
<g>
</g>
<g>
</g>
<g>
</g>
<g>
</g>
</svg>
