<?xml version="1.0" encoding="iso-8859-1"?>
<!-- Generator: Adobe Illustrator 19.0.0, SVG Export Plug-In . SVG Version: 6.00 Build 0)  -->
<svg version="1.1" id="Capa_1" xmlns="http://www.w3.org/2000/svg" xmlns:xlink="http://www.w3.org/1999/xlink" x="0px" y="0px"
	 viewBox="0 0 496 496" style="enable-background:new 0 0 496 496;" xml:space="preserve">
<g>
	<rect x="280" y="168" style="fill:#FFA64D;" width="192" height="40"/>
	<rect x="128" y="264" style="fill:#FFA64D;" width="216" height="40"/>
	<circle style="fill:#FFA64D;" cx="416" cy="80" r="80"/>
</g>
<g>
	<path style="fill:#333333;" d="M480,480V160H320v-8c0-13.232-10.768-24-24-24s-24,10.768-24,24v8h-16v-8c0-13.232-10.768-24-24-24
		s-24,10.768-24,24v8h-32v96h-16v-8c0-13.232-10.768-24-24-24s-24,10.768-24,24v8H96v-8c0-13.232-10.768-24-24-24s-24,10.768-24,24
		v8H16v224H0v16h496v-16H480z M464,192H336v16h128v272H352V256h-64v-80h176V192z M112,448H64v-16h48V448z M112,416H64v-16h48V416z
		 M112,384H64v-16h48V384z M112,352H64v-16h48V352z M112,320H64v-16h48V320z M64,464h48v16H64V464z M128,272h208v16H176v16h160v176
		H128V272z M272,224h-48v-16h48V224z M224,240h48v16h-48V240z M288,152c0-4.416,3.592-8,8-8s8,3.584,8,8v8h-16V152z M272,192h-48
		v-16h48V192z M224,152c0-4.416,3.592-8,8-8s8,3.584,8,8v8h-16V152z M192,176h16v80h-16V176z M128,248c0-4.416,3.592-8,8-8
		s8,3.584,8,8v8h-16V248z M112,288H64v-16h48V288z M64,248c0-4.416,3.592-8,8-8s8,3.584,8,8v8H64V248z M32,272h16v208H32V272z"/>
	<path style="fill:#333333;" d="M408,120v16h16v-16c13.232,0,24-10.768,24-24s-10.768-24-24-24h-16c-4.408,0-8-3.584-8-8
		s3.592-8,8-8h16c4.408,0,8,3.584,8,8v8h16v-8c0-13.232-10.768-24-24-24V24h-16v16c-13.232,0-24,10.768-24,24s10.768,24,24,24h16
		c4.408,0,8,3.584,8,8s-3.592,8-8,8h-16c-4.408,0-8-3.584-8-8v-8h-16v8C384,109.232,394.768,120,408,120z"/>
	<rect x="144" y="288" style="fill:#333333;" width="16" height="16"/>
	<rect x="304" y="192" style="fill:#333333;" width="16" height="16"/>
</g>
<g>
</g>
<g>
</g>
<g>
</g>
<g>
</g>
<g>
</g>
<g>
</g>
<g>
</g>
<g>
</g>
<g>
</g>
<g>
</g>
<g>
</g>
<g>
</g>
<g>
</g>
<g>
</g>
<g>
</g>
</svg>
